<?xml version="1.0" encoding="UTF-8"?>
<svg width="980px" height="185px" viewBox="0 0 980 185" version="1.1" xmlns="http://www.w3.org/2000/svg" xmlns:xlink="http://www.w3.org/1999/xlink">
    <!-- Generator: Sketch 48.2 (47327) - http://www.bohemiancoding.com/sketch -->
    <title>background</title>
    <desc>Created with Sketch.</desc>
    <defs></defs>
    <g id="Desktop" stroke="none" stroke-width="1" fill="none" fill-rule="evenodd" transform="translate(-16.000000, -9.000000)">
        <g id="header">
            <g id="background">
                <rect id="Rectangle" x="0" y="0" width="1024" height="200"></rect>
                <rect id="sprinkle" fill="#4A90E2" transform="translate(88.720023, 90.384913) rotate(-24.000000) translate(-88.720023, -90.384913) " x="73.7200235" y="87.8849133" width="30" height="5" rx="2.5"></rect>
                <rect id="sprinkle-copy-12" fill="#4A90E2" transform="translate(40.279977, 124.384913) rotate(-24.000000) translate(-40.279977, -124.384913) " x="25.2799765" y="121.884913" width="30" height="5" rx="2.5"></rect>
                <rect id="sprinkle-copy" fill="#F8E71C" transform="translate(134.720023, 70.384913) rotate(-24.000000) translate(-134.720023, -70.384913) " x="119.720023" y="67.8849133" width="30" height="5" rx="2.5"></rect>
                <rect id="sprinkle-copy-2" fill="#D0021B" transform="translate(185.720023, 88.384913) rotate(-24.000000) translate(-185.720023, -88.384913) " x="170.720023" y="85.8849133" width="30" height="5" rx="2.5"></rect>
                <rect id="sprinkle-copy-3" fill="#4A90E2" transform="translate(200.720023, 70.384913) rotate(-24.000000) translate(-200.720023, -70.384913) " x="185.720023" y="67.8849133" width="30" height="5" rx="2.5"></rect>
                <rect id="sprinkle-copy-4" fill="#F8E71C" transform="translate(241.720023, 50.384913) rotate(-24.000000) translate(-241.720023, -50.384913) " x="226.720023" y="47.8849133" width="30" height="5" rx="2.5"></rect>
                <rect id="sprinkle-copy-5" fill="#F8E71C" transform="translate(241.720023, 79.384913) rotate(-24.000000) translate(-241.720023, -79.384913) " x="226.720023" y="76.8849133" width="30" height="5" rx="2.5"></rect>
                <rect id="sprinkle-copy-6" fill="#D0021B" transform="translate(149.720023, 40.384913) rotate(-24.000000) translate(-149.720023, -40.384913) " x="134.720023" y="37.8849133" width="30" height="5" rx="2.5"></rect>
                <rect id="sprinkle-copy-7" fill="#F5A623" transform="translate(118.720023, 104.384913) rotate(-24.000000) translate(-118.720023, -104.384913) " x="103.720023" y="101.884913" width="30" height="5" rx="2.5"></rect>
                <rect id="sprinkle-copy-8" fill="#D0021B" transform="translate(115.720023, 166.384913) rotate(-24.000000) translate(-115.720023, -166.384913) " x="100.720023" y="163.884913" width="30" height="5" rx="2.5"></rect>
                <rect id="sprinkle-copy-9" fill="#D0021B" transform="translate(225.720023, 167.384913) rotate(-24.000000) translate(-225.720023, -167.384913) " x="210.720023" y="164.884913" width="30" height="5" rx="2.5"></rect>
                <rect id="sprinkle-copy-10" fill="#F8E71C" transform="translate(141.720023, 127.384913) rotate(-24.000000) translate(-141.720023, -127.384913) " x="126.720023" y="124.884913" width="30" height="5" rx="2.5"></rect>
                <rect id="sprinkle-copy-11" fill="#F8E71C" transform="translate(174.720023, 135.384913) rotate(-24.000000) translate(-174.720023, -135.384913) " x="159.720023" y="132.884913" width="30" height="5" rx="2.5"></rect>
                <rect id="sprinkle-copy-16" fill="#F5A623" transform="translate(83.720023, 159.384913) rotate(-24.000000) translate(-83.720023, -159.384913) " x="68.7200235" y="156.884913" width="30" height="5" rx="2.5"></rect>
                <rect id="sprinkle-copy-17" fill="#4A90E2" transform="translate(182.240381, 167.665064) rotate(30.000000) translate(-182.240381, -167.665064) " x="167.240381" y="165.165064" width="30" height="5" rx="2.5"></rect>
                <rect id="sprinkle-copy-18" fill="#F5A623" transform="translate(195.720023, 45.384913) rotate(-24.000000) translate(-195.720023, -45.384913) " x="180.720023" y="42.8849133" width="30" height="5" rx="2.5"></rect>
                <rect id="sprinkle-copy-148" fill="#F5A623" transform="translate(52.028714, 140.384913) rotate(-24.000000) translate(-52.028714, -140.384913) " x="37.0287139" y="137.884913" width="30" height="5" rx="2.5"></rect>
                <rect id="sprinkle-copy-19" fill="#F8E71C" transform="translate(72.720023, 50.384913) rotate(-24.000000) translate(-72.720023, -50.384913) " x="57.7200235" y="47.8849133" width="30" height="5" rx="2.5"></rect>
                <rect id="sprinkle-copy-13" fill="#D0021B" transform="translate(234.720023, 107.384913) rotate(-24.000000) translate(-234.720023, -107.384913) " x="219.720023" y="104.884913" width="30" height="5" rx="2.5"></rect>
                <rect id="sprinkle-copy-15" fill="#4A90E2" transform="translate(230.720023, 136.384913) rotate(-24.000000) translate(-230.720023, -136.384913) " x="215.720023" y="133.884913" width="30" height="5" rx="2.5"></rect>
                <rect id="sprinkle-copy-37" fill="#4A90E2" transform="translate(105.374369, 61.374369) rotate(45.000000) translate(-105.374369, -61.374369) " x="90.3743687" y="58.8743687" width="30" height="5" rx="2.5"></rect>
                <rect id="sprinkle-copy-36" fill="#F8E71C" transform="translate(170.374369, 62.374369) rotate(45.000000) translate(-170.374369, -62.374369) " x="155.374369" y="59.8743687" width="30" height="5" rx="2.5"></rect>
                <rect id="sprinkle-copy-35" fill="#D0021B" transform="translate(285.374369, 121.374369) rotate(45.000000) translate(-285.374369, -121.374369) " x="270.374369" y="118.874369" width="30" height="5" rx="2.5"></rect>
                <rect id="sprinkle-copy-34" fill="#4A90E2" transform="translate(246.374369, 24.374369) rotate(45.000000) translate(-246.374369, -24.374369) " x="231.374369" y="21.8743687" width="30" height="5" rx="2.5"></rect>
                <rect id="sprinkle-copy-33" fill="#F8E71C" transform="translate(272.374369, 30.374369) rotate(45.000000) translate(-272.374369, -30.374369) " x="257.374369" y="27.8743687" width="30" height="5" rx="2.5"></rect>
                <rect id="sprinkle-copy-32" fill="#F8E71C" transform="translate(212.374369, 90.374369) rotate(45.000000) translate(-212.374369, -90.374369) " x="197.374369" y="87.8743687" width="30" height="5" rx="2.5"></rect>
                <rect id="sprinkle-copy-146" fill="#F8E71C" transform="translate(67.374369, 78.374369) rotate(45.000000) translate(-67.374369, -78.374369) " x="52.3743687" y="75.8743687" width="30" height="5" rx="2.5"></rect>
                <rect id="sprinkle-copy-31" fill="#D0021B" transform="translate(180.374369, 20.374369) rotate(45.000000) translate(-180.374369, -20.374369) " x="165.374369" y="17.8743687" width="30" height="5" rx="2.5"></rect>
                <rect id="sprinkle-copy-30" fill="#F8E71C" transform="translate(134.960791, 21.727659) rotate(-41.000000) translate(-134.960791, -21.727659) " x="119.960791" y="19.2276594" width="30" height="5" rx="2.5"></rect>
                <rect id="sprinkle-copy-29" fill="#D0021B" transform="translate(79.374369, 131.374369) rotate(45.000000) translate(-79.374369, -131.374369) " x="64.3743687" y="128.874369" width="30" height="5" rx="2.5"></rect>
                <rect id="sprinkle-copy-147" fill="#D0021B" transform="translate(54.374369, 98.374369) rotate(45.000000) translate(-54.374369, -98.374369) " x="39.3743687" y="95.8743687" width="30" height="5" rx="2.5"></rect>
                <rect id="sprinkle-copy-28" fill="#D0021B" transform="translate(148.374369, 100.374369) rotate(45.000000) translate(-148.374369, -100.374369) " x="133.374369" y="97.8743687" width="30" height="5" rx="2.5"></rect>
                <rect id="sprinkle-copy-27" fill="#F8E71C" transform="translate(268.374369, 133.374369) rotate(45.000000) translate(-268.374369, -133.374369) " x="253.374369" y="130.874369" width="30" height="5" rx="2.5"></rect>
                <rect id="sprinkle-copy-150" fill="#F8E71C" transform="translate(27.905608, 98.536598) rotate(45.000000) translate(-27.905608, -98.536598) " x="12.9056079" y="96.0365977" width="30" height="5" rx="2.5"></rect>
                <rect id="sprinkle-copy-26" fill="#F5A623" transform="translate(205.374369, 115.374369) rotate(45.000000) translate(-205.374369, -115.374369) " x="190.374369" y="112.874369" width="30" height="5" rx="2.5"></rect>
                <rect id="sprinkle-copy-25" fill="#F8E71C" transform="translate(114.374369, 139.374369) rotate(45.000000) translate(-114.374369, -139.374369) " x="99.3743687" y="136.874369" width="30" height="5" rx="2.5"></rect>
                <rect id="sprinkle-copy-24" fill="#4A90E2" transform="translate(168.374369, 108.374369) rotate(45.000000) translate(-168.374369, -108.374369) " x="153.374369" y="105.874369" width="30" height="5" rx="2.5"></rect>
                <rect id="sprinkle-copy-149" fill="#4A90E2" transform="translate(39.654345, 71.374369) rotate(45.000000) translate(-39.654345, -71.374369) " x="24.6543452" y="68.8743687" width="30" height="5" rx="2.5"></rect>
                <rect id="sprinkle-copy-23" fill="#F5A623" transform="translate(226.374369, 25.374369) rotate(45.000000) translate(-226.374369, -25.374369) " x="211.374369" y="22.8743687" width="30" height="5" rx="2.5"></rect>
                <rect id="sprinkle-copy-22" fill="#F5A623" transform="translate(103.374369, 30.374369) rotate(45.000000) translate(-103.374369, -30.374369) " x="88.3743687" y="27.8743687" width="30" height="5" rx="2.5"></rect>
                <rect id="sprinkle-copy-21" fill="#D0021B" transform="translate(265.374369, 87.374369) rotate(45.000000) translate(-265.374369, -87.374369) " x="250.374369" y="84.8743687" width="30" height="5" rx="2.5"></rect>
                <rect id="sprinkle-copy-20" fill="#4A90E2" transform="translate(299.374369, 93.374369) rotate(45.000000) translate(-299.374369, -93.374369) " x="284.374369" y="90.8743687" width="30" height="5" rx="2.5"></rect>
                <rect id="sprinkle-copy-154" fill="#4A90E2" transform="translate(34.374369, 156.374369) rotate(45.000000) translate(-34.374369, -156.374369) " x="19.3743687" y="153.874369" width="30" height="5" rx="2.5"></rect>
                <rect id="sprinkle-copy-73" fill="#4A90E2" transform="translate(319.937059, 85.844274) rotate(68.000000) translate(-319.937059, -85.844274) " x="304.937059" y="83.3442743" width="30" height="5" rx="2.5"></rect>
                <rect id="sprinkle-copy-72" fill="#F8E71C" transform="translate(356.937059, 85.844274) rotate(68.000000) translate(-356.937059, -85.844274) " x="341.937059" y="83.3442743" width="30" height="5" rx="2.5"></rect>
                <rect id="sprinkle-copy-71" fill="#D0021B" transform="translate(407.950440, 104.479534) rotate(20.000000) translate(-407.950440, -104.479534) " x="392.95044" y="101.979534" width="30" height="5" rx="2.5"></rect>
                <rect id="sprinkle-copy-70" fill="#4A90E2" transform="translate(422.784401, 86.162229) rotate(23.000000) translate(-422.784401, -86.162229) " x="407.784401" y="83.6622291" width="30" height="5" rx="2.5"></rect>
                <rect id="sprinkle-copy-69" fill="#F8E71C" transform="translate(463.937059, 65.844274) rotate(68.000000) translate(-463.937059, -65.844274) " x="448.937059" y="63.3442743" width="30" height="5" rx="2.5"></rect>
                <rect id="sprinkle-copy-68" fill="#F8E71C" transform="translate(463.675301, 95.058360) rotate(43.000000) translate(-463.675301, -95.058360) " x="448.675301" y="92.5583597" width="30" height="5" rx="2.5"></rect>
                <rect id="sprinkle-copy-67" fill="#D0021B" transform="translate(371.950440, 56.479534) rotate(20.000000) translate(-371.950440, -56.479534) " x="356.95044" y="53.9795337" width="30" height="5" rx="2.5"></rect>
                <rect id="sprinkle-copy-156" fill="#D0021B" transform="translate(477.950440, 21.479534) rotate(20.000000) translate(-477.950440, -21.479534) " x="462.95044" y="18.9795337" width="30" height="5" rx="2.5"></rect>
                <rect id="sprinkle-copy-152" fill="#D0021B" transform="translate(54.049560, 38.520466) rotate(20.000000) translate(-54.049560, -38.520466) " x="39.0495603" y="36.0204663" width="30" height="5" rx="2.5"></rect>
                <rect id="sprinkle-copy-66" fill="#F5A623" transform="translate(340.937059, 119.844274) rotate(68.000000) translate(-340.937059, -119.844274) " x="325.937059" y="117.344274" width="30" height="5" rx="2.5"></rect>
                <rect id="sprinkle-copy-65" fill="#D0021B" transform="translate(270.937059, 166.844274) rotate(68.000000) translate(-270.937059, -166.844274) " x="255.937059" y="164.344274" width="30" height="5" rx="2.5"></rect>
                <rect id="sprinkle-copy-64" fill="#D0021B" transform="translate(406.937059, 165.844274) rotate(68.000000) translate(-406.937059, -165.844274) " x="391.937059" y="163.344274" width="30" height="5" rx="2.5"></rect>
                <rect id="sprinkle-copy-63" fill="#F8E71C" transform="translate(363.784401, 143.162229) rotate(23.000000) translate(-363.784401, -143.162229) " x="348.784401" y="140.662229" width="30" height="5" rx="2.5"></rect>
                <rect id="sprinkle-copy-62" fill="#F8E71C" transform="translate(436.206237, 161.066742) rotate(10.000000) translate(-436.206237, -161.066742) " x="421.206237" y="158.566742" width="30" height="5" rx="2.5"></rect>
                <rect id="sprinkle-copy-61" fill="#F5A623" transform="translate(305.937059, 174.844274) rotate(68.000000) translate(-305.937059, -174.844274) " x="290.937059" y="172.344274" width="30" height="5" rx="2.5"></rect>
                <rect id="sprinkle-copy-60" fill="#4A90E2" transform="translate(372.784401, 163.162229) rotate(23.000000) translate(-372.784401, -163.162229) " x="357.784401" y="160.662229" width="30" height="5" rx="2.5"></rect>
                <rect id="sprinkle-copy-59" fill="#F5A623" transform="translate(417.937059, 60.844274) rotate(68.000000) translate(-417.937059, -60.844274) " x="402.937059" y="58.3442743" width="30" height="5" rx="2.5"></rect>
                <rect id="sprinkle-copy-157" fill="#F5A623" transform="translate(340.874117, 29.844274) rotate(68.000000) translate(-340.874117, -29.844274) " x="325.874117" y="27.3442743" width="30" height="5" rx="2.5"></rect>
                <rect id="sprinkle-copy-153" fill="#F5A623" transform="translate(83.062941, 67.844274) rotate(68.000000) translate(-83.062941, -67.844274) " x="68.0629415" y="65.3442743" width="30" height="5" rx="2.5"></rect>
                <rect id="sprinkle-copy-58" fill="#F8E71C" transform="translate(294.937059, 65.844274) rotate(68.000000) translate(-294.937059, -65.844274) " x="279.937059" y="63.3442743" width="30" height="5" rx="2.5"></rect>
                <rect id="sprinkle-copy-57" fill="#D0021B" transform="translate(407.206237, 139.066742) rotate(10.000000) translate(-407.206237, -139.066742) " x="392.206237" y="136.566742" width="30" height="5" rx="2.5"></rect>
                <rect id="sprinkle-copy-56" fill="#4A90E2" transform="translate(452.675301, 152.058360) rotate(43.000000) translate(-452.675301, -152.058360) " x="437.675301" y="149.55836" width="30" height="5" rx="2.5"></rect>
                <rect id="sprinkle-copy-55" fill="#4A90E2" transform="translate(332.937059, 55.844274) rotate(68.000000) translate(-332.937059, -55.844274) " x="317.937059" y="53.3442743" width="30" height="5" rx="2.5"></rect>
                <rect id="sprinkle-copy-54" fill="#F8E71C" transform="translate(342.206237, 94.066742) rotate(10.000000) translate(-342.206237, -94.066742) " x="327.206237" y="91.566742" width="30" height="5" rx="2.5"></rect>
                <rect id="sprinkle-copy-151" fill="#F8E71C" transform="translate(36.822477, 52.066742) rotate(10.000000) translate(-36.822477, -52.066742) " x="21.8224771" y="49.566742" width="30" height="5" rx="2.5"></rect>
                <rect id="sprinkle-copy-53" fill="#D0021B" transform="translate(499.937059, 114.844274) rotate(68.000000) translate(-499.937059, -114.844274) " x="484.937059" y="112.344274" width="30" height="5" rx="2.5"></rect>
                <rect id="sprinkle-copy-52" fill="#4A90E2" transform="translate(467.937059, 39.844274) rotate(68.000000) translate(-467.937059, -39.844274) " x="452.937059" y="37.3442743" width="30" height="5" rx="2.5"></rect>
                <rect id="sprinkle-copy-51" fill="#F8E71C" transform="translate(493.675301, 46.058360) rotate(43.000000) translate(-493.675301, -46.058360) " x="478.675301" y="43.5583597" width="30" height="5" rx="2.5"></rect>
                <rect id="sprinkle-copy-50" fill="#F8E71C" transform="translate(433.784401, 106.162229) rotate(23.000000) translate(-433.784401, -106.162229) " x="418.784401" y="103.662229" width="30" height="5" rx="2.5"></rect>
                <rect id="sprinkle-copy-49" fill="#D0021B" transform="translate(401.950440, 36.479534) rotate(20.000000) translate(-401.950440, -36.479534) " x="386.95044" y="33.9795337" width="30" height="5" rx="2.5"></rect>
                <rect id="sprinkle-copy-48" fill="#F8E71C" x="351" y="33" width="30" height="5" rx="2.5"></rect>
                <rect id="sprinkle-copy-47" fill="#D0021B" transform="translate(300.937059, 146.844274) rotate(68.000000) translate(-300.937059, -146.844274) " x="285.937059" y="144.344274" width="30" height="5" rx="2.5"></rect>
                <rect id="sprinkle-copy-46" fill="#D0021B" transform="translate(320.206237, 132.066742) rotate(10.000000) translate(-320.206237, -132.066742) " x="305.206237" y="129.566742" width="30" height="5" rx="2.5"></rect>
                <rect id="sprinkle-copy-45" fill="#F8E71C" transform="translate(489.937059, 148.844274) rotate(68.000000) translate(-489.937059, -148.844274) " x="474.937059" y="146.344274" width="30" height="5" rx="2.5"></rect>
                <rect id="sprinkle-copy-44" fill="#F5A623" transform="translate(426.937059, 130.844274) rotate(68.000000) translate(-426.937059, -130.844274) " x="411.937059" y="128.344274" width="30" height="5" rx="2.5"></rect>
                <rect id="sprinkle-copy-43" fill="#F8E71C" transform="translate(335.937059, 154.844274) rotate(68.000000) translate(-335.937059, -154.844274) " x="320.937059" y="152.344274" width="30" height="5" rx="2.5"></rect>
                <rect id="sprinkle-copy-42" fill="#4A90E2" transform="translate(389.950440, 124.479534) rotate(20.000000) translate(-389.950440, -124.479534) " x="374.95044" y="121.979534" width="30" height="5" rx="2.5"></rect>
                <rect id="sprinkle-copy-41" fill="#F5A623" transform="translate(447.950440, 41.479534) rotate(20.000000) translate(-447.950440, -41.479534) " x="432.95044" y="38.9795337" width="30" height="5" rx="2.5"></rect>
                <rect id="sprinkle-copy-40" fill="#F5A623" transform="translate(294.937059, 43.844274) rotate(68.000000) translate(-294.937059, -43.844274) " x="279.937059" y="41.3442743" width="30" height="5" rx="2.5"></rect>
                <rect id="sprinkle-copy-39" fill="#D0021B" transform="translate(459.950440, 138.479534) rotate(20.000000) translate(-459.950440, -138.479534) " x="444.95044" y="135.979534" width="30" height="5" rx="2.5"></rect>
                <rect id="sprinkle-copy-38" fill="#4A90E2" transform="translate(492.950440, 83.479534) rotate(20.000000) translate(-492.950440, -83.479534) " x="477.95044" y="80.9795337" width="30" height="5" rx="2.5"></rect>
                <rect id="sprinkle-copy-145" fill="#4A90E2" transform="translate(539.720023, 95.384913) rotate(-24.000000) translate(-539.720023, -95.384913) " x="524.720023" y="92.8849133" width="30" height="5" rx="2.5"></rect>
                <rect id="sprinkle-copy-144" fill="#F8E71C" transform="translate(584.720023, 75.384913) rotate(-24.000000) translate(-584.720023, -75.384913) " x="569.720023" y="72.8849133" width="30" height="5" rx="2.5"></rect>
                <rect id="sprinkle-copy-143" fill="#D0021B" transform="translate(635.720023, 93.384913) rotate(-24.000000) translate(-635.720023, -93.384913) " x="620.720023" y="90.8849133" width="30" height="5" rx="2.5"></rect>
                <rect id="sprinkle-copy-158" fill="#D0021B" transform="translate(769.720023, 32.615087) rotate(-24.000000) translate(-769.720023, -32.615087) " x="754.720023" y="30.1150867" width="30" height="5" rx="2.5"></rect>
                <rect id="sprinkle-copy-142" fill="#4A90E2" transform="translate(650.720023, 75.384913) rotate(-24.000000) translate(-650.720023, -75.384913) " x="635.720023" y="72.8849133" width="30" height="5" rx="2.5"></rect>
                <rect id="sprinkle-copy-141" fill="#F8E71C" transform="translate(691.720023, 55.384913) rotate(-24.000000) translate(-691.720023, -55.384913) " x="676.720023" y="52.8849133" width="30" height="5" rx="2.5"></rect>
                <rect id="sprinkle-copy-140" fill="#F8E71C" transform="translate(700.720023, 73.384913) rotate(-24.000000) translate(-700.720023, -73.384913) " x="685.720023" y="70.8849133" width="30" height="5" rx="2.5"></rect>
                <rect id="sprinkle-copy-165" fill="#F8E71C" transform="translate(976.720023, 91.615087) rotate(-24.000000) translate(-976.720023, -91.615087) " x="961.720023" y="89.1150867" width="30" height="5" rx="2.5"></rect>
                <rect id="sprinkle-copy-139" fill="#D0021B" transform="translate(599.720023, 45.384913) rotate(-24.000000) translate(-599.720023, -45.384913) " x="584.720023" y="42.8849133" width="30" height="5" rx="2.5"></rect>
                <rect id="sprinkle-copy-138" fill="#F5A623" transform="translate(568.720023, 109.384913) rotate(-24.000000) translate(-568.720023, -109.384913) " x="553.720023" y="106.884913" width="30" height="5" rx="2.5"></rect>
                <rect id="sprinkle-copy-137" fill="#D0021B" transform="translate(565.720023, 171.384913) rotate(-24.000000) translate(-565.720023, -171.384913) " x="550.720023" y="168.884913" width="30" height="5" rx="2.5"></rect>
                <rect id="sprinkle-copy-136" fill="#D0021B" transform="translate(676.720023, 172.384913) rotate(-24.000000) translate(-676.720023, -172.384913) " x="661.720023" y="169.884913" width="30" height="5" rx="2.5"></rect>
                <rect id="sprinkle-copy-135" fill="#F8E71C" transform="translate(591.720023, 132.384913) rotate(-24.000000) translate(-591.720023, -132.384913) " x="576.720023" y="129.884913" width="30" height="5" rx="2.5"></rect>
                <rect id="sprinkle-copy-134" fill="#F8E71C" transform="translate(624.720023, 140.384913) rotate(-24.000000) translate(-624.720023, -140.384913) " x="609.720023" y="137.884913" width="30" height="5" rx="2.5"></rect>
                <rect id="sprinkle-copy-133" fill="#F5A623" transform="translate(533.720023, 164.384913) rotate(-24.000000) translate(-533.720023, -164.384913) " x="518.720023" y="161.884913" width="30" height="5" rx="2.5"></rect>
                <rect id="sprinkle-copy-132" fill="#4A90E2" transform="translate(633.240381, 172.665064) rotate(30.000000) translate(-633.240381, -172.665064) " x="618.240381" y="170.165064" width="30" height="5" rx="2.5"></rect>
                <rect id="sprinkle-copy-131" fill="#F5A623" transform="translate(645.720023, 50.384913) rotate(-24.000000) translate(-645.720023, -50.384913) " x="630.720023" y="47.8849133" width="30" height="5" rx="2.5"></rect>
                <rect id="sprinkle-copy-130" fill="#F8E71C" transform="translate(522.720023, 55.384913) rotate(-24.000000) translate(-522.720023, -55.384913) " x="507.720023" y="52.8849133" width="30" height="5" rx="2.5"></rect>
                <rect id="sprinkle-copy-129" fill="#D0021B" transform="translate(684.720023, 112.384913) rotate(-24.000000) translate(-684.720023, -112.384913) " x="669.720023" y="109.884913" width="30" height="5" rx="2.5"></rect>
                <rect id="sprinkle-copy-128" fill="#4A90E2" transform="translate(681.720023, 141.384913) rotate(-24.000000) translate(-681.720023, -141.384913) " x="666.720023" y="138.884913" width="30" height="5" rx="2.5"></rect>
                <rect id="sprinkle-copy-166" fill="#4A90E2" transform="translate(883.657082, 73.615087) rotate(-24.000000) translate(-883.657082, -73.615087) " x="868.657082" y="71.1150867" width="30" height="5" rx="2.5"></rect>
                <rect id="sprinkle-copy-127" fill="#4A90E2" transform="translate(555.374369, 66.374369) rotate(45.000000) translate(-555.374369, -66.374369) " x="540.374369" y="63.8743687" width="30" height="5" rx="2.5"></rect>
                <rect id="sprinkle-copy-155" fill="#4A90E2" transform="translate(512.000000, 25.625631) rotate(45.000000) translate(-512.000000, -25.625631) " x="497" y="23.1256313" width="30" height="5" rx="2.5"></rect>
                <rect id="sprinkle-copy-126" fill="#F8E71C" transform="translate(621.374369, 67.374369) rotate(45.000000) translate(-621.374369, -67.374369) " x="606.374369" y="64.8743687" width="30" height="5" rx="2.5"></rect>
                <rect id="sprinkle-copy-125" fill="#D0021B" transform="translate(736.374369, 126.374369) rotate(45.000000) translate(-736.374369, -126.374369) " x="721.374369" y="123.874369" width="30" height="5" rx="2.5"></rect>
                <rect id="sprinkle-copy-124" fill="#4A90E2" transform="translate(697.374369, 29.374369) rotate(45.000000) translate(-697.374369, -29.374369) " x="682.374369" y="26.8743687" width="30" height="5" rx="2.5"></rect>
                <rect id="sprinkle-copy-123" fill="#F8E71C" transform="translate(722.374369, 35.374369) rotate(45.000000) translate(-722.374369, -35.374369) " x="707.374369" y="32.8743687" width="30" height="5" rx="2.5"></rect>
                <rect id="sprinkle-copy-122" fill="#F8E71C" transform="translate(663.374369, 95.374369) rotate(45.000000) translate(-663.374369, -95.374369) " x="648.374369" y="92.8743687" width="30" height="5" rx="2.5"></rect>
                <rect id="sprinkle-copy-121" fill="#D0021B" transform="translate(630.374369, 25.374369) rotate(45.000000) translate(-630.374369, -25.374369) " x="615.374369" y="22.8743687" width="30" height="5" rx="2.5"></rect>
                <rect id="sprinkle-copy-120" fill="#F8E71C" transform="translate(584.960791, 25.727659) rotate(-41.000000) translate(-584.960791, -25.727659) " x="569.960791" y="23.2276594" width="30" height="5" rx="2.5"></rect>
                <rect id="sprinkle-copy-119" fill="#D0021B" transform="translate(529.374369, 136.374369) rotate(45.000000) translate(-529.374369, -136.374369) " x="514.374369" y="133.874369" width="30" height="5" rx="2.5"></rect>
                <rect id="sprinkle-copy-118" fill="#D0021B" transform="translate(598.374369, 105.374369) rotate(45.000000) translate(-598.374369, -105.374369) " x="583.374369" y="102.874369" width="30" height="5" rx="2.5"></rect>
                <rect id="sprinkle-copy-117" fill="#F8E71C" transform="translate(719.374369, 138.374369) rotate(45.000000) translate(-719.374369, -138.374369) " x="704.374369" y="135.874369" width="30" height="5" rx="2.5"></rect>
                <rect id="sprinkle-copy-116" fill="#F5A623" transform="translate(655.374369, 120.374369) rotate(45.000000) translate(-655.374369, -120.374369) " x="640.374369" y="117.874369" width="30" height="5" rx="2.5"></rect>
                <rect id="sprinkle-copy-115" fill="#F8E71C" transform="translate(564.374369, 144.374369) rotate(45.000000) translate(-564.374369, -144.374369) " x="549.374369" y="141.874369" width="30" height="5" rx="2.5"></rect>
                <rect id="sprinkle-copy-114" fill="#4A90E2" transform="translate(619.374369, 113.374369) rotate(45.000000) translate(-619.374369, -113.374369) " x="604.374369" y="110.874369" width="30" height="5" rx="2.5"></rect>
                <rect id="sprinkle-copy-113" fill="#F5A623" transform="translate(676.374369, 30.374369) rotate(45.000000) translate(-676.374369, -30.374369) " x="661.374369" y="27.8743687" width="30" height="5" rx="2.5"></rect>
                <rect id="sprinkle-copy-112" fill="#F5A623" transform="translate(553.374369, 35.374369) rotate(45.000000) translate(-553.374369, -35.374369) " x="538.374369" y="32.8743687" width="30" height="5" rx="2.5"></rect>
                <rect id="sprinkle-copy-111" fill="#D0021B" transform="translate(715.374369, 92.374369) rotate(45.000000) translate(-715.374369, -92.374369) " x="700.374369" y="89.8743687" width="30" height="5" rx="2.5"></rect>
                <rect id="sprinkle-copy-164" fill="#D0021B" transform="translate(948.374369, 75.374369) rotate(45.000000) translate(-948.374369, -75.374369) " x="933.374369" y="72.8743687" width="30" height="5" rx="2.5"></rect>
                <rect id="sprinkle-copy-110" fill="#4A90E2" transform="translate(750.374369, 98.374369) rotate(45.000000) translate(-750.374369, -98.374369) " x="735.374369" y="95.8743687" width="30" height="5" rx="2.5"></rect>
                <rect id="sprinkle-copy-109" fill="#4A90E2" transform="translate(770.937059, 90.844274) rotate(68.000000) translate(-770.937059, -90.844274) " x="755.937059" y="88.3442743" width="30" height="5" rx="2.5"></rect>
                <rect id="sprinkle-copy-108" fill="#F8E71C" transform="translate(807.937059, 90.844274) rotate(68.000000) translate(-807.937059, -90.844274) " x="792.937059" y="88.3442743" width="30" height="5" rx="2.5"></rect>
                <rect id="sprinkle-copy-107" fill="#D0021B" transform="translate(858.950440, 109.479534) rotate(20.000000) translate(-858.950440, -109.479534) " x="843.95044" y="106.979534" width="30" height="5" rx="2.5"></rect>
                <rect id="sprinkle-copy-106" fill="#4A90E2" transform="translate(873.784401, 91.162229) rotate(23.000000) translate(-873.784401, -91.162229) " x="858.784401" y="88.6622291" width="30" height="5" rx="2.5"></rect>
                <rect id="sprinkle-copy-105" fill="#F8E71C" transform="translate(914.937059, 70.844274) rotate(68.000000) translate(-914.937059, -70.844274) " x="899.937059" y="68.3442743" width="30" height="5" rx="2.5"></rect>
                <rect id="sprinkle-copy-104" fill="#F8E71C" transform="translate(914.675301, 100.058360) rotate(43.000000) translate(-914.675301, -100.058360) " x="899.675301" y="97.5583597" width="30" height="5" rx="2.5"></rect>
                <rect id="sprinkle-copy-161" fill="#F8E71C" transform="translate(978.675301, 138.058360) rotate(43.000000) translate(-978.675301, -138.058360) " x="963.675301" y="135.55836" width="30" height="5" rx="2.5"></rect>
                <rect id="sprinkle-copy-103" fill="#D0021B" transform="translate(822.950440, 61.479534) rotate(20.000000) translate(-822.950440, -61.479534) " x="807.95044" y="58.9795337" width="30" height="5" rx="2.5"></rect>
                <rect id="sprinkle-copy-162" fill="#D0021B" transform="translate(980.950440, 112.479534) rotate(20.000000) translate(-980.950440, -112.479534) " x="965.95044" y="109.979534" width="30" height="5" rx="2.5"></rect>
                <rect id="sprinkle-copy-102" fill="#F5A623" transform="translate(791.937059, 124.844274) rotate(68.000000) translate(-791.937059, -124.844274) " x="776.937059" y="122.344274" width="30" height="5" rx="2.5"></rect>
                <rect id="sprinkle-copy-101" fill="#D0021B" transform="translate(721.937059, 171.844274) rotate(68.000000) translate(-721.937059, -171.844274) " x="706.937059" y="169.344274" width="30" height="5" rx="2.5"></rect>
                <rect id="sprinkle-copy-100" fill="#D0021B" transform="translate(857.937059, 170.844274) rotate(68.000000) translate(-857.937059, -170.844274) " x="842.937059" y="168.344274" width="30" height="5" rx="2.5"></rect>
                <rect id="sprinkle-copy-99" fill="#F8E71C" transform="translate(814.784401, 148.162229) rotate(23.000000) translate(-814.784401, -148.162229) " x="799.784401" y="145.662229" width="30" height="5" rx="2.5"></rect>
                <rect id="sprinkle-copy-98" fill="#F8E71C" transform="translate(887.206237, 166.066742) rotate(10.000000) translate(-887.206237, -166.066742) " x="872.206237" y="163.566742" width="30" height="5" rx="2.5"></rect>
                <rect id="sprinkle-copy-97" fill="#F5A623" transform="translate(756.937059, 179.844274) rotate(68.000000) translate(-756.937059, -179.844274) " x="741.937059" y="177.344274" width="30" height="5" rx="2.5"></rect>
                <rect id="sprinkle-copy-96" fill="#4A90E2" transform="translate(823.784401, 168.162229) rotate(23.000000) translate(-823.784401, -168.162229) " x="808.784401" y="165.662229" width="30" height="5" rx="2.5"></rect>
                <rect id="sprinkle-copy-95" fill="#F5A623" transform="translate(855.937059, 65.844274) rotate(68.000000) translate(-855.937059, -65.844274) " x="840.937059" y="63.3442743" width="30" height="5" rx="2.5"></rect>
                <rect id="sprinkle-copy-167" fill="#F5A623" transform="translate(969.937059, 63.155726) rotate(68.000000) translate(-969.937059, -63.155726) " x="954.937059" y="60.6557257" width="30" height="5" rx="2.5"></rect>
                <rect id="sprinkle-copy-94" fill="#F8E71C" transform="translate(745.937059, 70.844274) rotate(68.000000) translate(-745.937059, -70.844274) " x="730.937059" y="68.3442743" width="30" height="5" rx="2.5"></rect>
                <rect id="sprinkle-copy-93" fill="#D0021B" transform="translate(858.206237, 144.066742) rotate(10.000000) translate(-858.206237, -144.066742) " x="843.206237" y="141.566742" width="30" height="5" rx="2.5"></rect>
                <rect id="sprinkle-copy-92" fill="#4A90E2" transform="translate(903.675301, 157.058360) rotate(43.000000) translate(-903.675301, -157.058360) " x="888.675301" y="154.55836" width="30" height="5" rx="2.5"></rect>
                <rect id="sprinkle-copy-160" fill="#4A90E2" transform="translate(914.675301, 127.058360) rotate(43.000000) translate(-914.675301, -127.058360) " x="899.675301" y="124.55836" width="30" height="5" rx="2.5"></rect>
                <rect id="sprinkle-copy-91" fill="#4A90E2" transform="translate(783.937059, 60.844274) rotate(68.000000) translate(-783.937059, -60.844274) " x="768.937059" y="58.3442743" width="30" height="5" rx="2.5"></rect>
                <rect id="sprinkle-copy-90" fill="#F8E71C" transform="translate(793.206237, 99.066742) rotate(10.000000) translate(-793.206237, -99.066742) " x="778.206237" y="96.566742" width="30" height="5" rx="2.5"></rect>
                <rect id="sprinkle-copy-89" fill="#D0021B" transform="translate(950.937059, 119.844274) rotate(68.000000) translate(-950.937059, -119.844274) " x="935.937059" y="117.344274" width="30" height="5" rx="2.5"></rect>
                <rect id="sprinkle-copy-88" fill="#4A90E2" transform="translate(918.937059, 44.844274) rotate(68.000000) translate(-918.937059, -44.844274) " x="903.937059" y="42.3442743" width="30" height="5" rx="2.5"></rect>
                <rect id="sprinkle-copy-87" fill="#F8E71C" transform="translate(944.675301, 51.058360) rotate(43.000000) translate(-944.675301, -51.058360) " x="929.675301" y="48.5583597" width="30" height="5" rx="2.5"></rect>
                <rect id="sprinkle-copy-86" fill="#F8E71C" transform="translate(884.784401, 111.162229) rotate(23.000000) translate(-884.784401, -111.162229) " x="869.784401" y="108.662229" width="30" height="5" rx="2.5"></rect>
                <rect id="sprinkle-copy-85" fill="#D0021B" transform="translate(852.950440, 41.479534) rotate(20.000000) translate(-852.950440, -41.479534) " x="837.95044" y="38.9795337" width="30" height="5" rx="2.5"></rect>
                <rect id="sprinkle-copy-84" fill="#F8E71C" x="802" y="38" width="30" height="5" rx="2.5"></rect>
                <rect id="sprinkle-copy-83" fill="#D0021B" transform="translate(751.937059, 151.844274) rotate(68.000000) translate(-751.937059, -151.844274) " x="736.937059" y="149.344274" width="30" height="5" rx="2.5"></rect>
                <rect id="sprinkle-copy-82" fill="#D0021B" transform="translate(771.206237, 137.066742) rotate(10.000000) translate(-771.206237, -137.066742) " x="756.206237" y="134.566742" width="30" height="5" rx="2.5"></rect>
                <rect id="sprinkle-copy-81" fill="#F8E71C" transform="translate(940.937059, 153.844274) rotate(68.000000) translate(-940.937059, -153.844274) " x="925.937059" y="151.344274" width="30" height="5" rx="2.5"></rect>
                <rect id="sprinkle-copy-80" fill="#F5A623" transform="translate(877.937059, 135.844274) rotate(68.000000) translate(-877.937059, -135.844274) " x="862.937059" y="133.344274" width="30" height="5" rx="2.5"></rect>
                <rect id="sprinkle-copy-79" fill="#F8E71C" transform="translate(786.937059, 159.844274) rotate(68.000000) translate(-786.937059, -159.844274) " x="771.937059" y="157.344274" width="30" height="5" rx="2.5"></rect>
                <rect id="sprinkle-copy-78" fill="#4A90E2" transform="translate(840.950440, 129.479534) rotate(20.000000) translate(-840.950440, -129.479534) " x="825.95044" y="126.979534" width="30" height="5" rx="2.5"></rect>
                <rect id="sprinkle-copy-163" fill="#4A90E2" transform="translate(829.950440, 92.520466) rotate(20.000000) translate(-829.950440, -92.520466) " x="814.95044" y="90.0204663" width="30" height="5" rx="2.5"></rect>
                <rect id="sprinkle-copy-159" fill="#4A90E2" transform="translate(965.950440, 151.479534) rotate(20.000000) translate(-965.950440, -151.479534) " x="950.95044" y="148.979534" width="30" height="5" rx="2.5"></rect>
                <rect id="sprinkle-copy-77" fill="#F5A623" transform="translate(898.950440, 46.479534) rotate(20.000000) translate(-898.950440, -46.479534) " x="883.95044" y="43.9795337" width="30" height="5" rx="2.5"></rect>
                <rect id="sprinkle-copy-76" fill="#F5A623" transform="translate(745.937059, 48.844274) rotate(68.000000) translate(-745.937059, -48.844274) " x="730.937059" y="46.3442743" width="30" height="5" rx="2.5"></rect>
                <rect id="sprinkle-copy-75" fill="#D0021B" transform="translate(910.950440, 143.479534) rotate(20.000000) translate(-910.950440, -143.479534) " x="895.95044" y="140.979534" width="30" height="5" rx="2.5"></rect>
                <rect id="sprinkle-copy-74" fill="#4A90E2" transform="translate(943.950440, 88.479534) rotate(20.000000) translate(-943.950440, -88.479534) " x="928.95044" y="85.9795337" width="30" height="5" rx="2.5"></rect>
                <rect id="sprinkle-copy-168" fill="#4A90E2" transform="translate(958.950440, 35.520466) rotate(20.000000) translate(-958.950440, -35.520466) " x="943.95044" y="33.0204663" width="30" height="5" rx="2.5"></rect>
            </g>
        </g>
    </g>
</svg>